<?xml version="1.0" standalone="no"?>
<!DOCTYPE svg PUBLIC "-//W3C//DTD SVG 20010904//EN"
 "http://www.w3.org/TR/2001/REC-SVG-20010904/DTD/svg10.dtd">
<svg version="1.0" xmlns="http://www.w3.org/2000/svg"
 width="300.000000pt" height="304.000000pt" viewBox="0 0 300.000000 304.000000"
 preserveAspectRatio="xMidYMid meet">
<metadata>
Created by potrace 1.10, written by Peter Selinger 2001-2011
</metadata>
<g transform="translate(0.000000,304.000000) scale(0.100000,-0.100000)"
fill="#000000" stroke="none">
<path d="M407 2904 c-4 -4 -7 -123 -7 -265 0 -197 -3 -258 -12 -262 -7 -2 -44
2 -83 10 -38 7 -82 13 -97 13 l-28 0 0 -380 c0 -296 3 -382 13 -385 15 -6 341
-39 557 -57 252 -21 1259 -18 1583 6 141 10 264 15 272 12 12 -4 15 -32 15
-155 0 -133 -2 -151 -17 -160 -21 -10 -243 -36 -453 -52 -80 -6 -356 -14 -615
-18 l-470 -6 0 -445 0 -445 -235 0 -235 0 -3 542 -2 542 -63 19 c-34 11 -81
23 -104 27 l-43 7 0 -681 0 -681 434 0 c239 0 441 3 450 6 14 5 16 55 16 455
l0 448 33 5 c17 3 239 7 492 10 451 4 563 10 775 42 58 9 117 17 133 18 15 2
30 6 33 9 3 3 12 3 19 1 7 -3 23 -1 34 6 21 11 21 16 21 386 l0 376 -62 -8
c-35 -5 -81 -8 -103 -9 l-40 0 -3 532 c-2 495 -3 532 -20 537 -9 3 -204 5
-432 3 l-415 -2 -3 -286 c-2 -261 -4 -288 -20 -294 -9 -3 -117 -3 -239 1
l-223 7 -2 286 -3 286 -421 3 c-231 1 -423 -1 -427 -4z m822 -32 c6 -11 9
-125 9 -276 -1 -209 1 -260 13 -271 10 -10 53 -16 159 -19 80 -3 184 -8 232
-11 53 -3 88 -1 88 4 0 5 8 12 18 15 16 5 17 25 14 258 -2 139 -1 268 3 286
l6 32 404 0 c223 -1 406 -2 407 -3 2 -1 5 -238 8 -526 l5 -524 26 -20 c23 -16
32 -18 60 -9 19 6 52 12 74 14 l40 3 -1 -353 c-1 -194 -4 -355 -6 -357 -5 -5
-138 -30 -242 -45 -74 -11 -150 -17 -321 -26 -297 -16 -298 -16 -306 -2 -5 7
-9 8 -9 3 0 -7 -105 -10 -302 -10 -290 0 -304 -1 -325 -20 l-23 -21 -2 -439
-3 -440 -413 -1 c-237 -1 -415 2 -418 7 -3 5 -8 7 -12 5 -4 -2 -6 288 -6 645
1 357 4 650 8 650 17 4 126 -25 126 -32 0 -5 7 -9 15 -9 13 0 15 -66 15 -535
0 -522 0 -535 20 -545 12 -6 108 -11 239 -12 202 -2 222 -1 240 16 21 19 21
28 21 455 l0 436 157 -3 c272 -6 621 -2 645 7 13 4 53 6 90 3 37 -2 81 1 98 7
20 7 39 7 56 1 14 -6 23 -7 21 -2 -3 4 30 8 72 10 130 4 351 32 382 47 16 9
29 21 30 28 1 6 0 75 -1 152 -1 116 -4 143 -18 157 -18 18 -59 21 -187 12 -38
-3 -111 -6 -161 -8 -50 -1 -95 -6 -101 -9 -30 -19 -1291 -13 -1468 7 -79 9
-167 15 -208 15 -21 0 -37 4 -34 8 3 4 -23 8 -56 8 -54 0 -105 5 -182 19 -20
3 -20 10 -17 362 l3 359 27 -1 c15 0 56 -4 90 -7 100 -10 97 -20 96 275 l-2
248 399 0 c376 0 399 -1 408 -18z"/>
<path d="M1211 2844 c0 -11 3 -14 6 -6 3 7 2 16 -1 19 -3 4 -6 -2 -5 -13z"/>
<path d="M1211 2784 c0 -11 3 -14 6 -6 3 7 2 16 -1 19 -3 4 -6 -2 -5 -13z"/>
<path d="M1212 2730 c0 -14 2 -19 5 -12 2 6 2 18 0 25 -3 6 -5 1 -5 -13z"/>
<path d="M826 2723 c-168 -3 -203 -6 -218 -20 -16 -14 -18 -35 -18 -184 0
-161 1 -169 21 -180 12 -6 30 -9 40 -6 10 3 22 1 25 -4 3 -5 46 -8 96 -7 66 2
92 0 95 -10 3 -6 8 -10 11 -8 4 2 43 7 87 10 115 9 115 8 116 189 0 84 -4 153
-9 160 -6 7 -11 15 -11 20 -1 12 -25 47 -31 45 -3 -2 -95 -4 -204 -5z m228
-54 c9 -47 7 -302 -3 -317 -7 -11 -43 -13 -184 -8 -96 3 -182 9 -191 12 -9 3
-28 4 -41 2 l-25 -5 0 167 c0 92 3 170 7 173 3 4 102 7 218 7 l213 0 6 -31z"/>
<path d="M2319 2709 c-7 -5 -90 -9 -184 -8 -93 0 -176 0 -182 0 -14 -1 -29
-69 -25 -111 2 -24 3 -37 1 -62 0 -7 1 -94 2 -194 2 -175 -2 -211 -22 -198 -5
3 -16 1 -24 -6 -9 -8 -57 -9 -157 -6 -79 4 -218 8 -309 9 -91 2 -171 7 -177
11 -7 4 -12 4 -12 -1 0 -4 -35 -7 -78 -6 -42 1 -127 4 -189 5 -61 2 -114 6
-117 9 -4 3 -36 5 -73 3 -36 -2 -71 0 -77 4 -6 4 -36 7 -66 8 -65 1 -155 9
-191 18 -50 11 -58 -12 -60 -182 0 -104 3 -157 11 -167 6 -7 36 -17 66 -21 29
-3 52 -9 50 -13 -3 -4 10 -7 27 -8 18 -1 48 -4 67 -7 42 -7 70 -10 263 -27 81
-7 147 -16 147 -20 0 -3 24 -2 53 2 54 9 113 3 134 -13 7 -5 17 -7 23 -3 14 8
519 10 527 2 3 -3 17 -1 32 4 40 16 82 19 103 8 10 -5 18 -6 18 -2 0 5 21 9
48 9 26 1 101 5 167 9 66 4 143 8 170 9 28 0 57 7 65 15 9 9 15 10 18 3 2 -8
12 -6 28 5 l25 16 -4 444 c-3 363 -6 446 -17 453 -8 5 -18 7 -22 4 -4 -3 -16
-1 -26 5 -11 6 -24 6 -33 0z m54 -19 l27 0 0 -444 0 -443 -47 -7 c-103 -14
-440 -37 -495 -34 -32 2 -58 1 -58 -2 0 -3 -139 -5 -310 -5 -170 0 -310 2
-310 5 0 3 -38 4 -85 2 -47 -2 -85 0 -85 5 0 4 -40 9 -88 10 -93 2 -265 22
-425 50 l-97 16 0 160 0 160 58 -7 c233 -25 486 -38 784 -39 186 -1 338 -5
338 -9 0 -11 308 -10 314 1 3 4 17 6 31 3 l25 -4 0 289 c0 159 2 292 4 294 2
2 91 3 198 2 106 -2 205 -3 221 -3z"/>
<path d="M1211 2674 c0 -11 3 -14 6 -6 3 7 2 16 -1 19 -3 4 -6 -2 -5 -13z"/>
<path d="M2505 882 l-90 -37 -5 -270 -5 -270 -225 0 -225 0 -2 230 -2 229 -43
-4 c-24 -2 -60 -4 -80 -5 -21 0 -38 -3 -38 -8 0 -4 -11 -5 -24 -1 -22 5 -25 2
-31 -28 -3 -18 -4 -166 -3 -328 l3 -295 442 -3 443 -2 2 397 c2 219 1 406 -1
416 -5 23 -13 22 -116 -21z m91 -377 c-1 -212 -3 -385 -6 -385 -42 -4 -810 -5
-822 -2 -17 4 -18 27 -18 298 0 196 4 295 11 299 5 4 27 8 47 9 20 1 42 5 47
8 6 3 24 8 40 9 35 5 32 18 33 -186 1 -72 2 -143 3 -160 1 -16 2 -42 3 -56 0
-15 9 -36 19 -47 16 -18 32 -19 227 -20 183 -1 212 1 230 16 19 16 20 28 22
279 2 253 3 262 22 272 30 15 119 49 132 50 8 1 11 -112 10 -384z"/>
</g>
</svg>
