<?xml version="1.0" encoding="utf-8"?>

<svg version="1.0" width="180" height="180" viewBox="0 0 315.000000 319.000000" preserveAspectRatio="xMidYMid meet" xmlns="http://www.w3.org/2000/svg">
  <g transform="matrix(0.1, 0, 0, -0.1, -1, 319)" fill="#000000" stroke="none">
    <path d="M427 3044 c-4 -4 -7 -128 -7 -275 0 -204 -3 -268 -12 -271 -7 -3 -44 1 -83 8 -38 7 -85 13 -102 13 l-33 1 0 -400 c0 -312 3 -402 12 -405 16 -5 365 -39 583 -57 263 -21 1323 -18 1663 6 149 10 279 16 287 12 12 -4 15 -33 15 -165 0 -142 -2 -161 -18 -170 -19 -10 -241 -35 -467 -52 -82 -6 -373 -14 -645 -18 l-495 -6 -5 -470 -5 -470 -245 0 -245 0 -3 572 -2 572 -33 10 c-41 13 -158 41 -174 41 -10 0 -13 -149 -13 -710 l0 -710 454 0 c250 0 461 3 470 6 14 5 16 57 16 474 l0 468 23 6 c12 3 200 6 417 6 218 0 467 5 555 10 255 16 539 54 603 80 l22 10 0 391 0 391 -62 -8 c-35 -5 -83 -8 -108 -9 l-45 0 -3 557 c-2 519 -3 557 -20 562 -9 3 -213 5 -452 3 l-435 -2 -3 -302 -2 -303 -24 -6 c-13 -3 -126 -2 -252 3 l-229 8 -5 300 -5 300 -441 3 c-242 1 -443 -1 -447 -4z m677 -245 c9 -48 7 -322 -3 -338 -8 -12 -38 -13 -173 -7 -89 3 -191 9 -225 13 l-63 6 0 172 c0 94 3 175 7 178 3 4 106 7 228 7 l223 0 6 -31z m1384 21 l32 0 0 -465 c0 -256 -3 -465 -7 -465 -5 0 -75 -7 -158 -15 -510 -48 -1189 -44 -1615 10 -25 3 -107 15 -182 27 l-138 20 0 169 c0 129 3 169 13 169 6 0 86 -7 177 -15 310 -27 1272 -55 1388 -39 l52 7 0 297 c0 163 2 299 4 301 4 3 126 3 434 -1z" 
    style="fill: #FE3D02;"/>
    <path d="M2636 925 c-49 -19 -93 -38 -97 -42 -5 -5 -10 -135 -11 -288 l-3 -280 -235 0 -235 0 -3 243 -2 242 -29 0 c-59 0 -186 -22 -193 -33 -4 -7 -7 -158 -5 -337 l2 -325 462 -3 463 -2 2 413 c2 228 2 421 0 430 -5 22 -12 21 -116 -18z" style="fill: #FE3D02;"/>
  </g>
</svg>